<?xml version="1.0" encoding="UTF-8" standalone="no"?>
<!-- Created with Inkscape (http://www.inkscape.org/) -->

<svg
   width="235"
   height="64"
   viewBox="0 0 235 64"
   fill="none"
   version="1.1"
   id="svg155"
   inkscape:version="1.4.3 (0d15f75, 2025-12-25)"
   sodipodi:docname="pandora_main.svg"
   xmlns:inkscape="http://www.inkscape.org/namespaces/inkscape"
   xmlns:sodipodi="http://sodipodi.sourceforge.net/DTD/sodipodi-0.dtd"
   xmlns="http://www.w3.org/2000/svg"
   xmlns:svg="http://www.w3.org/2000/svg">
  <sodipodi:namedview
     id="namedview1"
     pagecolor="#ffffff"
     bordercolor="#000000"
     borderopacity="0.25"
     inkscape:showpageshadow="2"
     inkscape:pageopacity="0.0"
     inkscape:pagecheckerboard="0"
     inkscape:deskcolor="#d1d1d1"
     inkscape:document-units="px"
     showgrid="true"
     inkscape:zoom="3.4373136"
     inkscape:cx="134.84367"
     inkscape:cy="35.056446"
     inkscape:window-width="1728"
     inkscape:window-height="1022"
     inkscape:window-x="0"
     inkscape:window-y="38"
     inkscape:window-maximized="0"
     inkscape:current-layer="layer1">
    <inkscape:grid
       id="grid1"
       units="px"
       originx="0"
       originy="0"
       spacingx="1"
       spacingy="1"
       empcolor="#0099e5"
       empopacity="0.30196078"
       color="#0099e5"
       opacity="0.14901961"
       empspacing="8"
       dotted="false"
       gridanglex="30"
       gridanglez="30"
       visible="true" />
  </sodipodi:namedview>
  <defs
     id="defs1" />
  <g
     inkscape:label="Layer 1"
     inkscape:groupmode="layer"
     id="layer1">
    <path
       style="fill:none;fill-opacity:1;stroke:#ffffff;stroke-width:2;stroke-linecap:butt;stroke-linejoin:round;stroke-dasharray:none;stroke-dashoffset:0;stroke-opacity:1"
       d="M 6,26 H 17 L 38,6 H 26 Z"
       id="path19"
       sodipodi:nodetypes="ccccc" />
    <path
       style="fill:none;fill-opacity:1;stroke:#ffffff;stroke-width:2;stroke-linecap:butt;stroke-linejoin:round;stroke-dasharray:none;stroke-dashoffset:0;stroke-opacity:1"
       d="M 6,26 V 38 L 26,58 V 47 Z"
       id="path21"
       sodipodi:nodetypes="ccccc" />
    <path
       style="fill:none;fill-opacity:1;stroke:#ffffff;stroke-width:2;stroke-linecap:butt;stroke-linejoin:round;stroke-dasharray:none;stroke-dashoffset:0;stroke-opacity:1"
       d="m 6,26 h 11 l 15,15 -6,6 z"
       id="path22"
       sodipodi:nodetypes="ccccc" />
    <path
       style="fill:none;fill-opacity:1;stroke:#ffffff;stroke-width:2;stroke-linecap:butt;stroke-linejoin:round;stroke-dasharray:none;stroke-dashoffset:0;stroke-opacity:1"
       d="M 26,58 H 38 L 58,38 H 47 Z"
       id="path24"
       sodipodi:nodetypes="ccccc" />
    <path
       style="fill:none;fill-opacity:1;stroke:#ffffff;stroke-width:2;stroke-linecap:butt;stroke-linejoin:round;stroke-dasharray:none;stroke-dashoffset:0;stroke-opacity:1"
       d="M 58,38 V 26 L 38,6 v 11 z"
       id="path25"
       sodipodi:nodetypes="ccccc" />
    <path
       style="fill:none;fill-opacity:1;stroke:#ffffff;stroke-width:2;stroke-linecap:butt;stroke-linejoin:round;stroke-dasharray:none;stroke-dashoffset:0;stroke-opacity:1"
       d="M 38,6 V 17 L 23,32 17,26 Z"
       id="path20"
       sodipodi:nodetypes="ccccc" />
    <path
       style="fill:none;fill-opacity:1;stroke:#ffffff;stroke-width:2;stroke-linecap:butt;stroke-linejoin:round;stroke-dasharray:none;stroke-dashoffset:0;stroke-opacity:1"
       d="M 26,58 V 47 l 15,-15 6,6 z"
       id="path23"
       sodipodi:nodetypes="ccccc" />
    <path
       style="fill:none;fill-opacity:1;stroke:#ffffff;stroke-width:2;stroke-linecap:butt;stroke-linejoin:round;stroke-dasharray:none;stroke-dashoffset:0;stroke-opacity:1"
       d="M 58,38 H 47 L 32,23 38,17 Z"
       id="path26"
       sodipodi:nodetypes="ccccc" />
    <path
       style="font-weight:500;font-size:43.9839px;font-family:Inter;-inkscape-font-specification:'Inter Medium';letter-spacing:-1px;word-spacing:0px;fill:#ffffff;stroke-width:14.6613;stroke-linecap:round;stroke-linejoin:round"
       d="M 66.396728,48.263847 V 16.275558 h 11.402075 q 3.733009,0 6.185236,1.358877 2.452227,1.358878 3.670531,3.717389 1.218304,2.342893 1.218304,5.279318 0,2.952044 -1.233923,5.310556 -1.218304,2.342892 -3.68615,3.717389 -2.452228,1.358877 -6.169617,1.358877 h -7.840879 v -4.092252 h 7.403539 q 2.358512,0 3.826724,-0.812202 1.468213,-0.827822 2.155461,-2.249177 0.687249,-1.421355 0.687249,-3.233191 0,-1.811837 -0.687249,-3.217572 -0.687248,-1.405736 -2.17108,-2.202319 -1.468212,-0.796583 -3.873582,-0.796583 h -6.060281 v 27.849179 z m 33.502933,0.531056 q -2.280415,0 -4.123491,-0.843441 -1.843075,-0.859061 -2.920805,-2.483466 -1.062112,-1.624405 -1.062112,-3.982917 0,-2.030507 0.780965,-3.342526 0.780964,-1.31202 2.108603,-2.077365 1.327639,-0.765345 2.967663,-1.155827 1.640025,-0.390482 3.342526,-0.593532 2.15546,-0.249909 3.49872,-0.406102 1.34326,-0.171812 1.95241,-0.546675 0.60915,-0.374862 0.60915,-1.218304 v -0.109335 q 0,-2.046126 -1.15582,-3.170714 -1.14021,-1.124588 -3.40501,-1.124588 -2.35851,0 -3.717387,1.046492 -1.343259,1.030872 -1.858695,2.296034 L 92.52736,30.083003 q 0.780964,-2.186699 2.280415,-3.529958 1.51507,-1.358877 3.4831,-1.968029 1.968025,-0.624771 4.139105,-0.624771 1.43698,0 3.04576,0.343624 1.62441,0.328005 3.03015,1.218304 1.42135,0.890299 2.32727,2.545943 0.90592,1.640024 0.90592,4.264064 v 15.931667 h -4.56083 v -3.280049 h -0.18744 q -0.45295,0.905918 -1.35887,1.780598 -0.90592,0.87468 -2.32728,1.452594 -1.42135,0.577913 -3.404999,0.577913 z m 1.015249,-3.748628 q 1.9368,0 3.31129,-0.765345 1.39012,-0.765344 2.10861,-1.999268 0.7341,-1.249542 0.7341,-2.670897 v -3.092618 q -0.24991,0.249909 -0.96839,0.468579 -0.70287,0.20305 -1.60879,0.359243 -0.90592,0.140574 -1.76498,0.265528 -0.85906,0.109335 -1.43697,0.187431 -1.358881,0.171813 -2.483469,0.577914 -1.108969,0.406101 -1.780598,1.171446 -0.65601,0.749726 -0.65601,1.999268 0,1.73374 1.280781,2.624039 1.280781,0.87468 3.264426,0.87468 z m 20.71077,-11.027213 v 14.244785 h -4.67017 V 24.27263 h 4.48274 v 3.904821 h 0.29676 q 0.82782,-1.905553 2.5928,-3.06138 1.7806,-1.155826 4.48274,-1.155826 2.45222,0 4.2953,1.030872 1.84307,1.015253 2.85833,3.030141 1.01525,2.014887 1.01525,4.982551 v 15.260038 h -4.67016 V 33.566103 q 0,-2.60842 -1.35888,-4.076633 -1.35888,-1.483831 -3.73301,-1.483831 -1.62441,0 -2.88957,0.702867 -1.24954,0.702868 -1.98365,2.061745 -0.71848,1.343259 -0.71848,3.248811 z m 29.58256,14.713364 q -2.90518,0 -5.1856,-1.483832 -2.26479,-1.499451 -3.56119,-4.264064 -1.28079,-2.780232 -1.28079,-6.669433 0,-3.889202 1.29641,-6.653815 1.31201,-2.764612 3.59243,-4.232825 2.28042,-1.468212 5.16998,-1.468212 2.23356,0 3.59244,0.749725 1.37449,0.734106 2.12422,1.718121 0.76534,0.984015 1.18706,1.73374 h 0.28115 V 16.275558 h 4.67017 v 31.988289 h -4.56083 v -3.733008 h -0.39049 q -0.42172,0.765345 -1.2183,1.74936 -0.78096,0.984014 -2.15546,1.718121 -1.3745,0.734106 -3.5612,0.734106 z m 1.03088,-3.982917 q 2.01488,0 3.405,-1.062111 1.40574,-1.077731 2.12422,-2.983283 0.73411,-1.905553 0.73411,-4.435876 0,-2.499085 -0.71849,-4.373399 -0.71849,-1.874314 -2.1086,-2.920806 -1.39012,-1.046492 -3.43624,-1.046492 -2.10861,0 -3.51434,1.09335 -1.40574,1.09335 -2.12422,2.983283 -0.70287,1.889933 -0.70287,4.264064 0,2.405369 0.71848,4.326541 0.71849,1.921172 2.12423,3.04576 1.42135,1.108969 3.49872,1.108969 z m 26.61486,3.998536 q -3.37376,0 -5.88847,-1.546309 -2.5147,-1.546309 -3.90482,-4.326541 -1.39012,-2.780232 -1.39012,-6.497621 0,-3.733009 1.39012,-6.52886 1.39012,-2.795852 3.90482,-4.342161 2.51471,-1.546308 5.88847,-1.546308 3.37377,0 5.88847,1.546308 2.5147,1.546309 3.90482,4.342161 1.39012,2.795851 1.39012,6.52886 0,3.717389 -1.39012,6.497621 -1.39012,2.780232 -3.90482,4.326541 -2.5147,1.546309 -5.88847,1.546309 z m 0.0156,-3.92044 q 2.1867,0 3.62367,-1.155827 1.43698,-1.155826 2.12423,-3.076998 0.70286,-1.921172 0.70286,-4.232826 0,-2.296034 -0.70286,-4.217206 -0.68725,-1.936791 -2.12423,-3.108237 -1.43697,-1.171446 -3.62367,-1.171446 -2.20232,0 -3.65491,1.171446 -1.43698,1.171446 -2.13984,3.108237 -0.68725,1.921172 -0.68725,4.217206 0,2.311654 0.68725,4.232826 0.70286,1.921172 2.13984,3.076998 1.45259,1.155827 3.65491,1.155827 z m 15.36897,3.436242 V 24.27263 h 4.51397 v 3.811105 h 0.24991 q 0.65601,-1.936791 2.31165,-3.04576 1.67127,-1.124588 3.77987,-1.124588 0.43734,0 1.03087,0.03124 0.60916,0.03124 0.95278,0.0781 v 4.467114 q -0.28115,-0.0781 -0.99963,-0.171812 -0.71849,-0.109335 -1.43698,-0.109335 -1.65564,0 -2.95204,0.702868 -1.28078,0.687248 -2.03051,1.921172 -0.74972,1.218304 -0.74972,2.780232 v 14.650886 z m 22.6632,0.531056 q -2.28041,0 -4.12349,-0.843441 -1.84308,-0.859061 -2.92081,-2.483466 -1.06211,-1.624405 -1.06211,-3.982917 0,-2.030507 0.78097,-3.342526 0.78096,-1.31202 2.1086,-2.077365 1.32764,-0.765345 2.96766,-1.155827 1.64003,-0.390482 3.34253,-0.593532 2.15546,-0.249909 3.49872,-0.406102 1.34326,-0.171812 1.95241,-0.546675 0.60915,-0.374862 0.60915,-1.218304 v -0.109335 q 0,-2.046126 -1.15583,-3.170714 -1.1402,-1.124588 -3.405,-1.124588 -2.35851,0 -3.71739,1.046492 -1.34326,1.030872 -1.85869,2.296034 l -4.38902,-0.999634 q 0.78096,-2.186699 2.28041,-3.529958 1.51507,-1.358877 3.4831,-1.968029 1.96803,-0.624771 4.13911,-0.624771 1.43698,0 3.04576,0.343624 1.62441,0.328005 3.03014,1.218304 1.42136,0.890299 2.32728,2.545943 0.90592,1.640024 0.90592,4.264064 v 15.931667 h -4.56083 v -3.280049 h -0.18744 q -0.45295,0.905918 -1.35887,1.780598 -0.90592,0.87468 -2.32728,1.452594 -1.42135,0.577913 -3.405,0.577913 z m 1.01525,-3.748628 q 1.93679,0 3.31129,-0.765345 1.39012,-0.765344 2.1086,-1.999268 0.73411,-1.249542 0.73411,-2.670897 v -3.092618 q -0.24991,0.249909 -0.96839,0.468579 -0.70287,0.20305 -1.60879,0.359243 -0.90592,0.140574 -1.76498,0.265528 -0.85906,0.109335 -1.43697,0.187431 -1.35888,0.171813 -2.48347,0.577914 -1.10897,0.406101 -1.7806,1.171446 -0.65601,0.749726 -0.65601,1.999268 0,1.73374 1.28078,2.624039 1.28078,0.87468 3.26443,0.87468 z"
       id="text1"
       aria-label="Pandora" />
  </g>
</svg>
